<?xml version="1.0" encoding="utf-8"?>
<!-- Generator: Adobe Illustrator 24.3.0, SVG Export Plug-In . SVG Version: 6.00 Build 0)  -->
<svg version="1.1" id="Layer_1" xmlns="http://www.w3.org/2000/svg" xmlns:xlink="http://www.w3.org/1999/xlink" x="0px" y="0px"
	 viewBox="0 0 200 200" style="enable-background:new 0 0 200 200;" xml:space="preserve">
<style type="text/css">
	.st0{fill:#FFFFFF;stroke:#231F20;stroke-miterlimit:1;}
</style>
<g transform="matrix(.1 0 0 -.1 0 200)">
	<path class="st0" d="M1132,1733l297-168l1-377c0-208,2-378,4-378c3,0,48,25,100,56l96,56v376v377l-199,113l-199,112h-198H836
		L1132,1733z"/>
	<path class="st0" d="M542,1773l-203-118l-94-165c-51-91-92-166-91-168c2-1,133,72,290,163c158,92,294,169,301,171c8,3,80-34,162-81
		c297-175,454-266,468-272c14-5,15,10,13,108l-3,113l-315,183c-173,101-317,183-320,183S653,1837,542,1773z"/>
	<path class="st0" d="M438,1404l-318-186V979V739l93-160l92-160l5,343l5,342l115,68c63,38,206,121,318,185c111,65,202,120,202,123
		c0,6-178,110-189,110C758,1590,612,1506,438,1404z"/>
	<path class="st0" d="M1690,1201V862l-162-100c-90-55-234-139-320-188c-87-49-157-91-158-94c0-6,178-110,188-110c4,0,149,83,322,184
		l315,184l3,242l2,242l-91,159c-50,87-92,159-95,159C1692,1540,1690,1387,1690,1201z"/>
	<path class="st0" d="M457,1137l-87-51l2-380l3-379l190-108l190-108l200-1h200L900,255c-140,79-274,155-297,169l-43,26v370
		c0,203-3,370-7,370C548,1189,506,1166,457,1137z"/>
	<path class="st0" d="M610,588V474l321-186l321-187l203,117l202,117l96,165c52,91,94,166,92,168c-1,2-134-74-295-167
		c-161-94-294-171-296-171c-3,0-554,317-611,352l-33,20V588z"/>
</g>
</svg>
