<svg height="200pt" preserveAspectRatio="xMidYMid meet" viewBox="0 0 200 200" width="200pt" xmlns="http://www.w3.org/2000/svg"><g transform="matrix(.1 0 0 -.1 0 200)"><path d="m1132 1733 297-168 1-377c0-208 2-378 4-378 3 0 48 25 100 56l96 56v376 377l-199 113-199 112h-198-198z"/><path d="m542 1773-203-118-94-165c-51-91-92-166-91-168 2-1 133 72 290 163 158 92 294 169 301 171 8 3 80-34 162-81 297-175 454-266 468-272 14-5 15 10 13 108l-3 113-315 183c-173 101-317 183-320 183s-97-53-208-117z"/><path d="m438 1404-318-186v-239-240l93-160 92-160 5 343 5 342 115 68c63 38 206 121 318 185 111 65 202 120 202 123 0 6-178 110-189 110-3 0-149-84-323-186z"/><path d="m1690 1201v-339l-162-100c-90-55-234-139-320-188-87-49-157-91-158-94 0-6 178-110 188-110 4 0 149 83 322 184l315 184 3 242 2 242-91 159c-50 87-92 159-95 159-2 0-4-153-4-339z"/><path d="m457 1137-87-51 2-380 3-379 190-108 190-108 200-1h200l-255 145c-140 79-274 155-297 169l-43 26v370c0 203-3 370-7 370-5-1-47-24-96-53z"/><path d="m610 588v-114l321-186 321-187 203 117 202 117 96 165c52 91 94 166 92 168-1 2-134-74-295-167-161-94-294-171-296-171-3 0-554 317-611 352l-33 20z"/></g></svg>